<svg xmlns="http://www.w3.org/2000/svg" viewBox="0 0 500 500"><g id="freepik--background-complete--inject-12"><rect x="416.78" y="398.49" width="33.12" height="0.25" style="fill:#ebebeb"></rect><rect x="322.53" y="401.21" width="8.69" height="0.25" style="fill:#ebebeb"></rect><rect x="396.59" y="389.21" width="19.19" height="0.25" style="fill:#ebebeb"></rect><rect x="52.46" y="390.89" width="43.19" height="0.25" style="fill:#ebebeb"></rect><rect x="104.56" y="390.89" width="6.33" height="0.25" style="fill:#ebebeb"></rect><rect x="131.47" y="395.11" width="93.68" height="0.25" style="fill:#ebebeb"></rect><path d="M237,337.8H43.92a5.71,5.71,0,0,1-5.71-5.71V60.66A5.71,5.71,0,0,1,43.92,55H237a5.71,5.71,0,0,1,5.71,5.71V332.09A5.71,5.71,0,0,1,237,337.8ZM43.92,55.2a5.47,5.47,0,0,0-5.46,5.46V332.09a5.47,5.47,0,0,0,5.46,5.46H237a5.47,5.47,0,0,0,5.46-5.46V60.66A5.47,5.47,0,0,0,237,55.2Z" style="fill:#ebebeb"></path><path d="M453.31,337.8H260.21a5.72,5.72,0,0,1-5.71-5.71V60.66A5.72,5.72,0,0,1,260.21,55h193.1A5.71,5.71,0,0,1,459,60.66V332.09A5.71,5.71,0,0,1,453.31,337.8ZM260.21,55.2a5.47,5.47,0,0,0-5.46,5.46V332.09a5.47,5.47,0,0,0,5.46,5.46h193.1a5.47,5.47,0,0,0,5.46-5.46V60.66a5.47,5.47,0,0,0-5.46-5.46Z" style="fill:#ebebeb"></path><rect y="382.4" width="500" height="0.25" style="fill:#ebebeb"></rect><path d="M150.8,214.92,91.5,229a1.9,1.9,0,0,1-2.29-1.42L70.38,148.3a1.91,1.91,0,0,1,1.41-2.3l36.53-8.67,30.52,19,13.38,56.32A1.9,1.9,0,0,1,150.8,214.92Z" style="fill:#f0f0f0"></path><polygon points="138.84 156.31 108.32 137.33 106.38 137.79 113.57 168.06 140.13 161.75 138.84 156.31" style="fill:#e6e6e6"></polygon><polygon points="138.79 156.1 114.17 161.95 108.32 137.33 138.79 156.1" style="fill:none"></polygon><polygon points="138.79 156.1 114.17 161.95 108.32 137.33 138.79 156.1" style="fill:#fafafa"></polygon><rect x="89.65" y="170.37" width="45.08" height="28.57" transform="translate(-39.63 30.92) rotate(-13.36)" style="fill:#e6e6e6"></rect><polygon points="103.59 191.29 96.31 203.11 115.41 198.57 103.59 191.29" style="fill:#fafafa"></polygon><polygon points="111.11 199.59 137.42 193.34 136.82 190.81 122.11 181.75 111.11 199.59" style="fill:#fafafa"></polygon><path d="M111.54,180.56a4.82,4.82,0,1,1-5.79-3.57A4.81,4.81,0,0,1,111.54,180.56Z" style="fill:#fafafa"></path><path d="M406.11,148.66l-43.26-20.15a1.49,1.49,0,0,1-.72-2l26.94-57.85a1.5,1.5,0,0,1,2-.72L417.7,80.37l9.53,26.48-19.14,41.09A1.49,1.49,0,0,1,406.11,148.66Z" style="fill:#ebebeb"></path><polygon points="427.23 106.85 417.7 80.37 416.29 79.72 406 101.8 425.38 110.82 427.23 106.85" style="fill:#e0e0e0"></polygon><polygon points="427.3 106.7 409.33 98.34 417.7 80.37 427.3 106.7" style="fill:none"></polygon><polygon points="427.3 106.7 409.33 98.34 417.7 80.37 427.3 106.7" style="fill:#f5f5f5"></polygon><path d="M408.07,132.26l-32-14.91c-2.16-1-4.05,2.2-1.88,3.21l32,14.9c2.16,1,4.05-2.19,1.88-3.2Z" style="fill:#fafafa"></path><path d="M383.65,100.28l32,14.91c2.15,1,4-2.2,1.87-3.21l-32-14.9c-2.15-1-4,2.19-1.87,3.2Z" style="fill:#fafafa"></path><path d="M378.7,110.69l32,14.91c2.15,1,4-2.2,1.87-3.21l-32-14.9c-2.15-1-4,2.19-1.87,3.2Z" style="fill:#fafafa"></path><path d="M303,329.36l-1-3.27a3.12,3.12,0,0,0-2.34-2.14l-24.12-5.15a3.11,3.11,0,0,0-3.69,2.4L262,367.31a3.25,3.25,0,0,0,2.49,3.84l54.82,11.69a3.24,3.24,0,0,0,3.84-2.49l8.58-40.24a3.11,3.11,0,0,0-2.4-3.7L305,331.22A2.72,2.72,0,0,1,303,329.36Z" style="fill:#e0e0e0"></path><path d="M329.35,336.41l-24.12-5.14a3.11,3.11,0,0,0-3,1L300,334.86a2.71,2.71,0,0,1-2.6.87l-24.34-5.19a3.12,3.12,0,0,0-3.7,2.39L262,367.31a3.25,3.25,0,0,0,2.49,3.84l54.82,11.69a3.24,3.24,0,0,0,3.84-2.49l8.58-40.24A3.11,3.11,0,0,0,329.35,336.41Z" style="fill:#f0f0f0"></path></g><g id="freepik--Shadow--inject-12"><ellipse id="freepik--path--inject-12" cx="245.18" cy="412.39" rx="193.89" ry="11.32" style="fill:#f5f5f5"></ellipse></g><g id="freepik--Window--inject-12"><rect x="118.78" y="113.46" width="257.62" height="201.57" rx="11.89" style="fill:#0074E4"></rect><rect x="118.78" y="113.46" width="257.62" height="201.57" rx="11.89" style="fill:#fff;opacity:0.4"></rect><rect x="122.78" y="127.11" width="249.62" height="183.92" rx="7.89" style="fill:#fff;opacity:0.8"></rect><rect x="132.46" y="116.67" width="6.58" height="6.58" rx="1.89" style="fill:#fff;opacity:0.30000000000000004"></rect><rect x="143.13" y="116.67" width="6.58" height="6.58" rx="1.89" style="fill:#fff;opacity:0.5"></rect><rect x="153.81" y="116.67" width="6.58" height="6.58" rx="1.89" style="fill:#fff;opacity:0.7000000000000001"></rect><path d="M235.54,123.14V119l-2.07,3.46h-.52l-2.07-3.4v4.12h-1.12v-6.3h1l2.5,4.17,2.46-4.17h1v6.3Z" style="fill:#fff"></path><path d="M242.74,118.33l-2.25,5.19a2.44,2.44,0,0,1-.76,1.11,1.87,1.87,0,0,1-1.09.32,2.16,2.16,0,0,1-.71-.12,1.69,1.69,0,0,1-.58-.32l.45-.83a1.23,1.23,0,0,0,.38.24,1.2,1.2,0,0,0,.45.09.77.77,0,0,0,.49-.15,1.47,1.47,0,0,0,.35-.52l.08-.18-2.09-4.83h1.17l1.51,3.56,1.52-3.56Z" style="fill:#fff"></path><path d="M247.2,117.82v1.92h3.05v1H247.2v2.41H246v-6.3h4.6v1Z" style="fill:#fff"></path><path d="M251.62,117.35a.63.63,0,0,1-.2-.49.62.62,0,0,1,.2-.48.73.73,0,0,1,.52-.19.76.76,0,0,1,.51.18.61.61,0,0,1,.21.47.67.67,0,0,1-.21.5.69.69,0,0,1-.51.2A.77.77,0,0,1,251.62,117.35Zm-.05,1h1.12v4.81h-1.12Z" style="fill:#fff"></path><path d="M254.17,116.46h1.12v6.68h-1.12Z" style="fill:#fff"></path><path d="M261.27,121.09H257.5a1.33,1.33,0,0,0,.52.85,1.88,1.88,0,0,0,2.34-.22l.61.7a2,2,0,0,1-.82.58,3.06,3.06,0,0,1-1.12.2,3,3,0,0,1-1.4-.31,2.32,2.32,0,0,1-.93-.88,2.49,2.49,0,0,1-.33-1.28,2.54,2.54,0,0,1,.32-1.26,2.28,2.28,0,0,1,.89-.88,2.58,2.58,0,0,1,1.28-.31,2.44,2.44,0,0,1,1.25.31,2.21,2.21,0,0,1,.87.87,2.63,2.63,0,0,1,.31,1.3C261.29,120.84,261.28,121,261.27,121.09ZM258,119.5a1.35,1.35,0,0,0-.46.85h2.73a1.3,1.3,0,0,0-1.36-1.17A1.3,1.3,0,0,0,258,119.5Z" style="fill:#fff"></path><path d="M262.71,123.05a2.73,2.73,0,0,1-.89-.39l.43-.85a3.3,3.3,0,0,0,1.68.47c.67,0,1-.17,1-.53a.35.35,0,0,0-.25-.35,4.14,4.14,0,0,0-.83-.19,6.45,6.45,0,0,1-1-.21,1.36,1.36,0,0,1-.65-.41,1.14,1.14,0,0,1-.28-.81,1.25,1.25,0,0,1,.58-1.09,2.53,2.53,0,0,1,1.54-.41,4.17,4.17,0,0,1,1,.11,2.81,2.81,0,0,1,.81.3l-.43.86a2.68,2.68,0,0,0-1.38-.36,1.64,1.64,0,0,0-.75.14.45.45,0,0,0-.26.4.39.39,0,0,0,.28.38,4.93,4.93,0,0,0,.85.21,6.12,6.12,0,0,1,.94.21,1.56,1.56,0,0,1,.64.39,1.15,1.15,0,0,1,.26.8,1.26,1.26,0,0,1-.58,1.08,2.77,2.77,0,0,1-1.6.4A4.35,4.35,0,0,1,262.71,123.05Z" style="fill:#fff"></path></g><g id="freepik--Folders--inject-12"><path d="M169.82,168.26l-1.11-2a2.1,2.1,0,0,0-1.84-1.09H150.23a2.1,2.1,0,0,0-2.1,2.1v31.8a2.19,2.19,0,0,0,2.19,2.19h37.8a2.19,2.19,0,0,0,2.19-2.19V171.3a2.1,2.1,0,0,0-2.1-2.1H171.42A1.82,1.82,0,0,1,169.82,168.26Z" style="fill:#0074E4"></path><path d="M169.82,168.26l-1.11-2a2.1,2.1,0,0,0-1.84-1.09H150.23a2.1,2.1,0,0,0-2.1,2.1v31.8a2.19,2.19,0,0,0,2.19,2.19h37.8a2.19,2.19,0,0,0,2.19-2.19V171.3a2.1,2.1,0,0,0-2.1-2.1H171.42A1.82,1.82,0,0,1,169.82,168.26Z" style="fill:#fff;opacity:0.30000000000000004"></path><rect x="152.8" y="170.47" width="32.25" height="24.11" style="fill:#263238"></rect><rect x="152.8" y="170.47" width="32.25" height="24.11" style="fill:#fff;opacity:0.8"></rect><rect x="150.47" y="172.89" width="36.91" height="27.6" style="fill:#263238"></rect><rect x="150.47" y="172.89" width="36.91" height="27.6" style="fill:#fff;opacity:0.9"></rect><path d="M194,173.58H171.89a3.26,3.26,0,0,0-2.45.94L168,176.26a2.64,2.64,0,0,1-2.05.82h-21.6c-1.5,0-2.5.81-2.24,1.81,2.11,8.19,3.17,12.28,5.28,20.46a2.8,2.8,0,0,0,2.65,1.89h37.48a2.8,2.8,0,0,0,2.65-1.89l6.18-23.95C196.6,174.4,195.56,173.58,194,173.58Z" style="fill:#0074E4"></path><g style="opacity:0.6000000000000001"><path d="M194,173.58H171.89a3.26,3.26,0,0,0-2.45.94L168,176.26a2.64,2.64,0,0,1-2.05.82h-21.6c-1.5,0-2.5.81-2.24,1.81,2.11,8.19,3.17,12.28,5.28,20.46a2.8,2.8,0,0,0,2.65,1.89h37.48a2.8,2.8,0,0,0,2.65-1.89l6.18-23.95C196.6,174.4,195.56,173.58,194,173.58Z" style="fill:#fff"></path></g><path d="M149,213.22a2.52,2.52,0,1,1,0-5h40.33a2.52,2.52,0,1,1,0,5Z" style="fill:#263238"></path><path d="M149,213.22a2.52,2.52,0,1,1,0-5h40.33a2.52,2.52,0,1,1,0,5Z" style="fill:#fff;opacity:0.6000000000000001"></path><path d="M245,168.26l-1.11-2a2.11,2.11,0,0,0-1.84-1.09H225.45a2.1,2.1,0,0,0-2.1,2.1v31.8a2.18,2.18,0,0,0,2.18,2.19h37.81a2.18,2.18,0,0,0,2.18-2.19V171.3a2.1,2.1,0,0,0-2.1-2.1H246.63A1.82,1.82,0,0,1,245,168.26Z" style="fill:#0074E4"></path><path d="M245,168.26l-1.11-2a2.11,2.11,0,0,0-1.84-1.09H225.45a2.1,2.1,0,0,0-2.1,2.1v31.8a2.18,2.18,0,0,0,2.18,2.19h37.81a2.18,2.18,0,0,0,2.18-2.19V171.3a2.1,2.1,0,0,0-2.1-2.1H246.63A1.82,1.82,0,0,1,245,168.26Z" style="fill:#fff;opacity:0.30000000000000004"></path><rect x="228.02" y="170.47" width="32.25" height="24.11" style="fill:#263238"></rect><rect x="228.02" y="170.47" width="32.25" height="24.11" style="fill:#fff;opacity:0.8"></rect><rect x="225.69" y="172.89" width="36.91" height="27.6" style="fill:#263238"></rect><rect x="225.69" y="172.89" width="36.91" height="27.6" style="fill:#fff;opacity:0.9"></rect><path d="M269.23,173.58H247.11a3.28,3.28,0,0,0-2.46.94l-1.45,1.74a2.64,2.64,0,0,1-2,.82H219.55c-1.49,0-2.49.81-2.24,1.81,2.12,8.19,3.17,12.28,5.28,20.46a2.81,2.81,0,0,0,2.65,1.89h37.49a2.81,2.81,0,0,0,2.65-1.89l6.18-23.95C271.81,174.4,270.77,173.58,269.23,173.58Z" style="fill:#0074E4"></path><g style="opacity:0.6000000000000001"><path d="M269.23,173.58H247.11a3.28,3.28,0,0,0-2.46.94l-1.45,1.74a2.64,2.64,0,0,1-2,.82H219.55c-1.49,0-2.49.81-2.24,1.81,2.12,8.19,3.17,12.28,5.28,20.46a2.81,2.81,0,0,0,2.65,1.89h37.49a2.81,2.81,0,0,0,2.65-1.89l6.18-23.95C271.81,174.4,270.77,173.58,269.23,173.58Z" style="fill:#fff"></path></g><path d="M224.27,213.22a2.52,2.52,0,0,1,0-5H264.6a2.52,2.52,0,1,1,0,5Z" style="fill:#263238"></path><path d="M224.27,213.22a2.52,2.52,0,0,1,0-5H264.6a2.52,2.52,0,1,1,0,5Z" style="fill:#fff;opacity:0.6000000000000001"></path><path d="M169.82,248.54l-1.11-2a2.08,2.08,0,0,0-1.84-1.09H150.23a2.1,2.1,0,0,0-2.1,2.1v31.8a2.18,2.18,0,0,0,2.19,2.18h37.8a2.18,2.18,0,0,0,2.19-2.18V251.59a2.11,2.11,0,0,0-2.1-2.11H171.42A1.82,1.82,0,0,1,169.82,248.54Z" style="fill:#0074E4"></path><path d="M169.82,248.54l-1.11-2a2.08,2.08,0,0,0-1.84-1.09H150.23a2.1,2.1,0,0,0-2.1,2.1v31.8a2.18,2.18,0,0,0,2.19,2.18h37.8a2.18,2.18,0,0,0,2.19-2.18V251.59a2.11,2.11,0,0,0-2.1-2.11H171.42A1.82,1.82,0,0,1,169.82,248.54Z" style="fill:#fff;opacity:0.30000000000000004"></path><rect x="152.8" y="250.76" width="32.25" height="24.11" style="fill:#263238"></rect><rect x="152.8" y="250.76" width="32.25" height="24.11" style="fill:#fff;opacity:0.8"></rect><rect x="150.47" y="253.18" width="36.91" height="27.6" style="fill:#263238"></rect><rect x="150.47" y="253.18" width="36.91" height="27.6" style="fill:#fff;opacity:0.9"></rect><path d="M194,253.87H171.89a3.26,3.26,0,0,0-2.45.94c-.59.7-.88,1-1.45,1.74a2.67,2.67,0,0,1-2.05.81h-21.6c-1.5,0-2.5.82-2.24,1.82,2.11,8.18,3.17,12.27,5.28,20.46a2.8,2.8,0,0,0,2.65,1.88h37.48a2.8,2.8,0,0,0,2.65-1.88l6.18-24C196.6,254.68,195.56,253.87,194,253.87Z" style="fill:#0074E4"></path><g style="opacity:0.6000000000000001"><path d="M194,253.87H171.89a3.26,3.26,0,0,0-2.45.94c-.59.7-.88,1-1.45,1.74a2.67,2.67,0,0,1-2.05.81h-21.6c-1.5,0-2.5.82-2.24,1.82,2.11,8.18,3.17,12.27,5.28,20.46a2.8,2.8,0,0,0,2.65,1.88h37.48a2.8,2.8,0,0,0,2.65-1.88l6.18-24C196.6,254.68,195.56,253.87,194,253.87Z" style="fill:#fff"></path></g><path d="M149,294.51a2.52,2.52,0,0,1,0-5h40.33a2.52,2.52,0,1,1,0,5Z" style="fill:#263238"></path><path d="M149,294.51a2.52,2.52,0,0,1,0-5h40.33a2.52,2.52,0,1,1,0,5Z" style="fill:#fff;opacity:0.6000000000000001"></path><path d="M245,248.54l-1.11-2a2.09,2.09,0,0,0-1.84-1.09H225.45a2.1,2.1,0,0,0-2.1,2.1v31.8a2.17,2.17,0,0,0,2.18,2.18h37.81a2.17,2.17,0,0,0,2.18-2.18V251.59a2.11,2.11,0,0,0-2.1-2.11H246.63A1.82,1.82,0,0,1,245,248.54Z" style="fill:#0074E4"></path><path d="M245,248.54l-1.11-2a2.09,2.09,0,0,0-1.84-1.09H225.45a2.1,2.1,0,0,0-2.1,2.1v31.8a2.17,2.17,0,0,0,2.18,2.18h37.81a2.17,2.17,0,0,0,2.18-2.18V251.59a2.11,2.11,0,0,0-2.1-2.11H246.63A1.82,1.82,0,0,1,245,248.54Z" style="fill:#fff;opacity:0.30000000000000004"></path><rect x="228.02" y="250.76" width="32.25" height="24.11" style="fill:#263238"></rect><rect x="228.02" y="250.76" width="32.25" height="24.11" style="fill:#fff;opacity:0.8"></rect><rect x="225.69" y="253.18" width="36.91" height="27.6" style="fill:#263238"></rect><rect x="225.69" y="253.18" width="36.91" height="27.6" style="fill:#fff;opacity:0.9"></rect><path d="M269.23,253.87H247.11a3.28,3.28,0,0,0-2.46.94c-.59.7-.88,1-1.45,1.74a2.66,2.66,0,0,1-2,.81H219.55c-1.49,0-2.49.82-2.24,1.82,2.12,8.18,3.17,12.27,5.28,20.46a2.81,2.81,0,0,0,2.65,1.88h37.49a2.81,2.81,0,0,0,2.65-1.88l6.18-24C271.81,254.68,270.77,253.87,269.23,253.87Z" style="fill:#0074E4"></path><g style="opacity:0.6000000000000001"><path d="M269.23,253.87H247.11a3.28,3.28,0,0,0-2.46.94c-.59.7-.88,1-1.45,1.74a2.66,2.66,0,0,1-2,.81H219.55c-1.49,0-2.49.82-2.24,1.82,2.12,8.18,3.17,12.27,5.28,20.46a2.81,2.81,0,0,0,2.65,1.88h37.49a2.81,2.81,0,0,0,2.65-1.88l6.18-24C271.81,254.68,270.77,253.87,269.23,253.87Z" style="fill:#fff"></path></g><path d="M224.27,294.51a2.52,2.52,0,0,1,0-5H264.6a2.52,2.52,0,0,1,0,5Z" style="fill:#263238"></path><path d="M224.27,294.51a2.52,2.52,0,0,1,0-5H264.6a2.52,2.52,0,0,1,0,5Z" style="fill:#fff;opacity:0.6000000000000001"></path><path d="M318.56,248.54l-1.11-2a2.1,2.1,0,0,0-1.85-1.09H299a2.1,2.1,0,0,0-2.1,2.1v31.8a2.17,2.17,0,0,0,2.18,2.18h37.81a2.18,2.18,0,0,0,2.18-2.18V251.59a2.11,2.11,0,0,0-2.1-2.11H320.15A1.82,1.82,0,0,1,318.56,248.54Z" style="fill:#0074E4"></path><path d="M318.56,248.54l-1.11-2a2.1,2.1,0,0,0-1.85-1.09H299a2.1,2.1,0,0,0-2.1,2.1v31.8a2.17,2.17,0,0,0,2.18,2.18h37.81a2.18,2.18,0,0,0,2.18-2.18V251.59a2.11,2.11,0,0,0-2.1-2.11H320.15A1.82,1.82,0,0,1,318.56,248.54Z" style="fill:#fff;opacity:0.30000000000000004"></path><rect x="301.54" y="250.76" width="32.25" height="24.11" style="fill:#263238"></rect><rect x="301.54" y="250.76" width="32.25" height="24.11" style="fill:#fff;opacity:0.8"></rect><rect x="299.21" y="253.18" width="36.91" height="27.6" style="fill:#263238"></rect><rect x="299.21" y="253.18" width="36.91" height="27.6" style="fill:#fff;opacity:0.9"></rect><path d="M342.75,253.87H320.63a3.28,3.28,0,0,0-2.46.94c-.59.7-.88,1-1.45,1.74a2.66,2.66,0,0,1-2,.81H293.07c-1.49,0-2.49.82-2.24,1.82,2.12,8.18,3.17,12.27,5.28,20.46a2.81,2.81,0,0,0,2.65,1.88h37.48a2.81,2.81,0,0,0,2.66-1.88q3.08-12,6.17-24C345.33,254.68,344.29,253.87,342.75,253.87Z" style="fill:#0074E4"></path><g style="opacity:0.6000000000000001"><path d="M342.75,253.87H320.63a3.28,3.28,0,0,0-2.46.94c-.59.7-.88,1-1.45,1.74a2.66,2.66,0,0,1-2,.81H293.07c-1.49,0-2.49.82-2.24,1.82,2.12,8.18,3.17,12.27,5.28,20.46a2.81,2.81,0,0,0,2.65,1.88h37.48a2.81,2.81,0,0,0,2.66-1.88q3.08-12,6.17-24C345.33,254.68,344.29,253.87,342.75,253.87Z" style="fill:#fff"></path></g><path d="M297.79,294.51a2.52,2.52,0,0,1,0-5h40.33a2.52,2.52,0,0,1,0,5Z" style="fill:#263238"></path><path d="M297.79,294.51a2.52,2.52,0,0,1,0-5h40.33a2.52,2.52,0,0,1,0,5Z" style="fill:#fff;opacity:0.6000000000000001"></path><path d="M297.27,213.22a2.52,2.52,0,1,1,0-5H337.6a2.52,2.52,0,1,1,0,5Z" style="fill:#263238"></path><path d="M297.27,213.22a2.52,2.52,0,1,1,0-5H337.6a2.52,2.52,0,1,1,0,5Z" style="fill:#fff;opacity:0.6000000000000001"></path><path d="M295.89,202.13l8.6,25.16a3.11,3.11,0,0,0,2.79,1.9H324.2a1.47,1.47,0,0,0,1.54-1l.5-1.83a1.27,1.27,0,0,1,1.33-.86h17.07a1.39,1.39,0,0,0,1.49-1.9l-7.34-21.49-.11-4.2V165.58a2.13,2.13,0,0,0-2.13-2.13H319.63a2.12,2.12,0,0,0-1.87,1.1l-1.13,2.06a1.85,1.85,0,0,1-1.62.95H297.93a2.14,2.14,0,0,0-2.14,2.14v28.23Z" style="fill:#0074E4"></path><path d="M295.89,202.13l8.6,25.16a3.11,3.11,0,0,0,2.79,1.9H324.2a1.47,1.47,0,0,0,1.54-1l.5-1.83a1.27,1.27,0,0,1,1.33-.86h17.07a1.39,1.39,0,0,0,1.49-1.9l-7.34-21.49-.11-4.2V165.58a2.13,2.13,0,0,0-2.13-2.13H319.63a2.12,2.12,0,0,0-1.87,1.1l-1.13,2.06a1.85,1.85,0,0,1-1.62.95H297.93a2.14,2.14,0,0,0-2.14,2.14v28.23Z" style="fill:#fff;opacity:0.6000000000000001"></path><path d="M295.89,202.13l8.6,25.16a3.11,3.11,0,0,0,2.79,1.9H324.2a1.47,1.47,0,0,0,1.54-1l.5-1.83a1.27,1.27,0,0,1,1.33-.86h17.07a1.39,1.39,0,0,0,1.49-1.9l-7.34-21.49Z" style="fill:#0074E4"></path><path d="M295.89,202.13l8.6,25.16a3.11,3.11,0,0,0,2.79,1.9H324.2a1.47,1.47,0,0,0,1.54-1l.5-1.83a1.27,1.27,0,0,1,1.33-.86h17.07a1.39,1.39,0,0,0,1.49-1.9l-7.34-21.49Z" style="fill:#fff;opacity:0.30000000000000004"></path><polygon points="300.03 202.13 334.84 202.13 341.19 220.02 306.38 220.02 300.03 202.13" style="opacity:0.1"></polygon><rect x="300.03" y="173.91" width="34.81" height="28.21" transform="translate(634.87 376.04) rotate(180)" style="fill:#263238"></rect><rect x="300.03" y="173.91" width="34.81" height="28.21" transform="translate(634.87 376.04) rotate(180)" style="fill:#fff;opacity:0.8"></rect><polygon points="300.03 202.13 334.84 202.13 341.9 181.8 307.08 181.8 300.03 202.13" style="fill:#263238"></polygon><polygon points="300.03 202.13 334.84 202.13 341.9 181.8 307.08 181.8 300.03 202.13" style="fill:#fff;opacity:0.9"></polygon><polygon points="300.03 202.13 334.84 202.13 341.9 217.2 307.08 217.2 300.03 202.13" style="fill:#263238"></polygon><polygon points="300.03 202.13 334.84 202.13 341.9 217.2 307.08 217.2 300.03 202.13" style="fill:#fff;opacity:0.9"></polygon><polygon points="300.03 202.13 334.84 202.13 346.23 194.38 311.41 194.38 300.03 202.13" style="fill:#263238"></polygon><polygon points="300.03 202.13 334.84 202.13 346.23 194.38 311.41 194.38 300.03 202.13" style="fill:#fff;opacity:0.8"></polygon></g><g id="freepik--Plant--inject-12"><path d="M108.3,378.25c.86-13.57,6.81-27.3,16.38-36.62,2.39-2.32,7.41-6.92,3.34-9.35-4.65-2.78-13.57,10.2-14.82,12.6,2.64-10.34,10.64-17.83,19.32-22.12,4.29-2.12,8.38-4.13,3.81-7.28s-14.46,4.49-16.75,7.77c5.42-7.57,12.27-15.15,19.29-19.68,7.75-5,4.25-13.34-3.74-6.89-4.95,4-13.09,14-13.09,14s12.79-25.69,8.93-28c-5-3-13.76,32-16.18,38.9.65-5.72,1.26-19.56-3-20.16-3.89-.54-2.94,33.92-3.84,40-.57,2.65-.83,4-1.28,6.67-.42-4.59-3-16.69-6.86-15.29-3.28,1.18-1.25,10.24-.4,14.54,2.06,10.41,4.14,20.48,4.16,31.16Z" style="fill:#0074E4"></path><path d="M112.45,308.09c.58,7.48,1.1,15.08.38,22.6a125.17,125.17,0,0,1,5.33-12.81.75.75,0,0,1,.1-.2h0c.6-1.25,1.22-2.49,1.87-3.72.26-.49.9-.27.81.19,4.74-6,10.47-11.5,17.29-15,.5-.26.84.5.36.77-7.92,4.48-13.81,10.79-19.64,18.26a112.15,112.15,0,0,0-6.24,15.45,33,33,0,0,1,18.64-14c.52-.16.81.64.29.81-10.55,3.33-18,10.71-21,20.38a.59.59,0,0,1-.1.21c-1.47,6.18-2.59,12.18-3.45,18.48,3-8.87,9.39-16.7,16.75-22.2.44-.33.84.43.4.76a48.49,48.49,0,0,0-17.52,25.53s0,0,0,.05q-.48,6-.42,12a.42.42,0,1,1-.83,0A148.16,148.16,0,0,1,111.07,336c1.94-9.09,1.24-18.58.51-27.73C111.53,307.64,112.4,307.47,112.45,308.09Z" style="fill:#fff;opacity:0.4"></path><path d="M107.3,378.24c-1-16.1-8.07-32.39-19.43-43.44-2.83-2.75-8.78-8.21-4-11.09,5.51-3.29,16.1,12.1,17.57,14.94-3.12-12.26-12.62-21.14-22.91-26.23-5.09-2.52-9.94-4.89-4.52-8.63s17.16,5.33,19.86,9.21c-6.43-9-14.55-18-22.87-23.34-9.19-5.92-5-15.82,4.43-8.17C81.36,286.23,91,298.06,91,298.06S75.84,267.6,80.42,264.8c5.88-3.6,16.31,38,19.18,46.13-.76-6.78-1.48-23.2,3.62-23.91,4.61-.64,3.48,40.22,4.55,47.44.68,3.15,1,4.73,1.51,7.91.51-5.44,3.54-19.79,8.15-18.13,3.88,1.4,1.48,12.14.47,17.24-2.45,12.34-4.92,24.29-4.93,36.95Z" style="fill:#0074E4"></path><path d="M102.38,295c-.68,8.88-1.3,17.88-.45,26.8a147.49,147.49,0,0,0-6.32-15.18.86.86,0,0,0-.11-.24l0,0c-.72-1.48-1.45-2.95-2.21-4.4-.31-.59-1.08-.32-1,.22-5.62-7.15-12.41-13.64-20.5-17.82-.6-.31-1,.6-.43.92,9.39,5.31,16.37,12.8,23.3,21.66a135.2,135.2,0,0,1,7.4,18.32A39.12,39.12,0,0,0,80,308.63c-.62-.19-1,.76-.35.95,12.52,3.95,21.3,12.71,24.91,24.18a1,1,0,0,0,.13.25c1.74,7.33,3.06,14.45,4.09,21.91-3.54-10.51-11.14-19.81-19.86-26.32-.53-.4-1,.51-.48.9a57.55,57.55,0,0,1,20.78,30.28s0,0,0,.05q.57,7.08.5,14.22a.5.5,0,1,0,1,0A175.44,175.44,0,0,0,104,328.12c-2.3-10.77-1.47-22-.6-32.89C103.47,294.49,102.44,294.28,102.38,295Z" style="fill:#fff;opacity:0.2"></path><path d="M107.3,378.24c-1-16.1-8.07-32.39-19.43-43.44-2.83-2.75-8.78-8.21-4-11.09,5.51-3.29,16.1,12.1,17.57,14.94-3.12-12.26-12.62-21.14-22.91-26.23-5.09-2.52-9.94-4.89-4.52-8.63s17.16,5.33,19.86,9.21c-6.43-9-14.55-18-22.87-23.34-9.19-5.92-5-15.82,4.43-8.17C81.36,286.23,91,298.06,91,298.06S75.84,267.6,80.42,264.8c5.88-3.6,16.31,38,19.18,46.13-.76-6.78-1.48-23.2,3.62-23.91,4.61-.64,3.48,40.22,4.55,47.44.68,3.15,1,4.73,1.51,7.91.51-5.44,3.54-19.79,8.15-18.13,3.88,1.4,1.48,12.14.47,17.24-2.45,12.34-4.92,24.29-4.93,36.95Z" style="fill:#0074E4"></path><path d="M107.3,378.24c-1-16.1-8.07-32.39-19.43-43.44-2.83-2.75-8.78-8.21-4-11.09,5.51-3.29,16.1,12.1,17.57,14.94-3.12-12.26-12.62-21.14-22.91-26.23-5.09-2.52-9.94-4.89-4.52-8.63s17.16,5.33,19.86,9.21c-6.43-9-14.55-18-22.87-23.34-9.19-5.92-5-15.82,4.43-8.17C81.36,286.23,91,298.06,91,298.06S75.84,267.6,80.42,264.8c5.88-3.6,16.31,38,19.18,46.13-.76-6.78-1.48-23.2,3.62-23.91,4.61-.64,3.48,40.22,4.55,47.44.68,3.15,1,4.73,1.51,7.91.51-5.44,3.54-19.79,8.15-18.13,3.88,1.4,1.48,12.14.47,17.24-2.45,12.34-4.92,24.29-4.93,36.95Z" style="fill:#fff;opacity:0.2"></path><path d="M102.38,295c-.68,8.88-1.3,17.88-.45,26.8a147.49,147.49,0,0,0-6.32-15.18.86.86,0,0,0-.11-.24l0,0c-.72-1.48-1.45-2.95-2.21-4.4-.31-.59-1.08-.32-1,.22-5.62-7.15-12.41-13.64-20.5-17.82-.6-.31-1,.6-.43.92,9.39,5.31,16.37,12.8,23.3,21.66a135.2,135.2,0,0,1,7.4,18.32A39.12,39.12,0,0,0,80,308.63c-.62-.19-1,.76-.35.95,12.52,3.95,21.3,12.71,24.91,24.18a1,1,0,0,0,.13.25c1.74,7.33,3.06,14.45,4.09,21.91-3.54-10.51-11.14-19.81-19.86-26.32-.53-.4-1,.51-.48.9a57.55,57.55,0,0,1,20.78,30.28s0,0,0,.05q.57,7.08.5,14.22a.5.5,0,1,0,1,0A175.44,175.44,0,0,0,104,328.12c-2.3-10.77-1.47-22-.6-32.89C103.47,294.49,102.44,294.28,102.38,295Z" style="fill:#fff;opacity:0.5"></path><path d="M123.83,376.05H92.55a3.67,3.67,0,0,0-3.67,3.67v1.62A3.67,3.67,0,0,0,92.55,385h0l3.6,26h24.08l3.6-26h0a3.67,3.67,0,0,0,3.68-3.67v-1.62A3.67,3.67,0,0,0,123.83,376.05Z" style="fill:#0074E4"></path><path d="M123.83,376.05H92.55a3.67,3.67,0,0,0-3.67,3.67v1.62A3.67,3.67,0,0,0,92.55,385h0l3.6,26h24.08l3.6-26h0a3.67,3.67,0,0,0,3.68-3.67v-1.62A3.67,3.67,0,0,0,123.83,376.05Z" style="opacity:0.2"></path><polygon points="123.09 390.37 123.82 385.09 92.56 385.09 93.29 390.37 123.09 390.37" style="opacity:0.2"></polygon></g></svg>