<?xml version="1.0" encoding="UTF-8" standalone="no" ?>
<!DOCTYPE svg PUBLIC "-//W3C//DTD SVG 1.1//EN" "http://www.w3.org/Graphics/SVG/1.1/DTD/svg11.dtd">
<svg xmlns="http://www.w3.org/2000/svg" xmlns:xlink="http://www.w3.org/1999/xlink" version="1.1" width="24" height="24" viewBox="0 0 24 24" xml:space="preserve">
<desc>Created with Fabric.js 5.3.0</desc>
<defs>
</defs>
<g transform="matrix(0.0423639019 0 0 0.0423638991 11.024717598 10.7984429618)" id="XdH18IdXPLwxpmQiKdt2L"  >
<g style=""   >
		<g transform="matrix(1.1271186385 0 0 0.9745762625 0.2538881698 -3.1581415818)" id="X-0RBXDcC0Ml0GmDqHeqN"  >
<path style="stroke: rgb(0,0,0); stroke-width: 0; stroke-dasharray: none; stroke-linecap: butt; stroke-dashoffset: 0; stroke-linejoin: miter; stroke-miterlimit: 4; fill: rgb(255,255,255); fill-rule: nonzero; opacity: 1;"  transform=" translate(0, 0)" d="M -195.31035 139.1086 L -195.31035 -185.91490000000002 L -195.31035 -185.91490000000002 C -195.11469 -186.14007 -194.93631 -186.38447000000002 -194.77721 -186.64533000000003 C -181.06199 -209.13242000000002 -197.6472 -166.43838000000002 -124.82240999999999 -166.43838000000002 C -118.07963 -166.43838000000002 -115.27716999999998 -134.17757000000003 -64.12446 -134.17757000000003 C -12.97175 -134.17757000000003 62.709109999999995 -200.40539 62.709109999999995 -200.40539 L 179.63218 -141.52923 L 195.31034 -126.96636000000001 L 195.31034 75.70351 C 195.31034 75.70351 -45.359669999999994 200.40541 -51.39747 200.40541 C -122.86440999999999 200.40541 -195.31036 139.10861 -195.31036 139.10861 z" stroke-linecap="round" />
</g>
		<g transform="matrix(25.3380325814 0 0 25.3380325814 0 0)" id="NsmE2067wsOnsOheqiptB"  >
<path style="stroke: rgb(0,0,0); stroke-width: 1; stroke-dasharray: none; stroke-linecap: round; stroke-dashoffset: 0; stroke-linejoin: round; stroke-miterlimit: 4; fill: rgb(255,255,255); fill-opacity: 0; fill-rule: nonzero; opacity: 1;"  transform=" translate(0, 0)" d="M -3 8 L -9 5 L -9 -8 L -3 -5 M -3 8 L 3 5 M -3 -5 M 3 5 L 9 8 L 9 -5 L 6.12818 -6.43591 L 3.0000000000000004 -8 M 3 -8 M -3 -5 L 3 -8" stroke-linecap="round" />
</g>
</g>
</g>
<g transform="matrix(0.0639687193 0 0 0.0639687149 11.024717598 10.5738849818)" id="mIXDPqkOVP0VutZmCNLuJ"  >
<path style="stroke: rgb(0,0,0); stroke-width: 1; stroke-dasharray: none; stroke-linecap: butt; stroke-dashoffset: 0; stroke-linejoin: miter; stroke-miterlimit: 4; fill: rgb(252,134,29); fill-rule: nonzero; opacity: 1;"  transform=" translate(-130, -84.5)" d="M 251.32 102.84 L 231.379 106.967 L 226.45 111.846 L 224.474 125.88300000000001 L 217.343 135.365 L 209.18699999999998 133.93900000000002 L 194.49999999999997 139.04200000000003 L 179.23899999999998 134.71500000000003 L 160.27399999999997 102.51400000000004 L 158.44899999999998 81.47300000000004 L 162.00199999999998 69.96400000000004 L 147.48899999999998 64.33500000000004 L 133.42799999999997 39.54100000000004 L 126.29699999999997 33.66000000000004 L 116.83999999999997 34.06100000000004 L 111.78599999999997 40.81700000000004 L 101.80299999999997 34.862000000000045 L 97.97499999999997 25.430000000000042 L 86.01599999999996 15.045000000000043 L 72.47999999999996 14.645000000000042 L 66.29999999999995 18.599000000000043 L 49.96299999999995 17.773000000000042 L 20.36399999999995 4.337000000000042 L 1.9999999999999503 2.0100000000000424 L 10.68199999999995 29.433000000000042 L 23.24199999999995 42.868000000000045 L 23.61099999999995 48.786000000000044 L 18.58799999999995 54.051000000000045 L 35.14799999999995 65.72700000000005 L 36.90199999999995 77.62000000000005 L 52.06399999999995 90.88100000000004 L 49.586999999999954 78.89600000000004 L 42.83199999999995 60.83200000000004 L 26.21899999999995 34.13600000000004 L 19.56399999999995 26.22900000000004 L 18.887999999999952 9.816000000000038 L 33.424999999999955 18.22400000000004 L 39.22899999999996 39.064000000000036 L 63.04799999999996 65.18600000000004 L 62.89799999999996 65.41000000000004 L 63.76599999999996 70.30900000000004 L 91.39499999999997 101.48800000000004 L 95.87299999999996 110.99500000000005 L 95.02299999999997 118.50100000000005 L 91.41999999999997 121.07900000000005 L 101.12799999999997 132.83800000000005 L 132.70199999999997 150.12600000000006 L 173.70899999999997 164.01200000000006 L 188.896 156.13200000000006 L 207.886 166.99000000000007 L 217.66899999999998 157.98200000000006 L 229.82799999999997 154.32900000000006 L 219.59499999999997 146.54900000000006 L 223.24799999999996 141.04400000000007 L 240.01099999999997 138.31800000000007 L 245.58999999999997 132.66300000000007 L 252.24599999999998 132.81300000000007 L 253.22599999999997 119.38900000000007 L 257.99999999999994 108.39400000000006 z" stroke-linecap="round" />
</g>
<g transform="matrix(0.3952014301 0 0 0.3952014032 19.4776782031 18.1759940682)" id="2wJHrZutwW0UGBJ8EvRE3"  >
<path style="stroke: rgb(0,0,0); stroke-width: 3; stroke-dasharray: none; stroke-linecap: round; stroke-dashoffset: 0; stroke-linejoin: round; stroke-miterlimit: 4; fill: rgb(255,255,255); fill-rule: nonzero; opacity: 1;"  transform=" translate(0, 0)" d="M 3.7955 3.8111 L 9 9 M 6 -1.5 C 6 2.6421 2.6421 6 -1.5 6 C -5.64214 6 -9 2.6421 -9 -1.5 C -9 -5.64214 -5.6421399999999995 -9 -1.5 -9 C 2.6421 -9 6 -5.6421399999999995 6 -1.5 z" stroke-linecap="round" />
</g>
</svg>